<svg width="42" height="45" viewBox="0 0 42 45" fill="none" xmlns="http://www.w3.org/2000/svg">
<path d="M35.7177 13.05V16.4812C35.7177 17.6812 35.1927 18.8062 34.2827 19.4999L15.0327 34.6124C13.7902 35.5874 12.0927 35.5875 10.8677 34.5937L8.34771 32.5687C7.21021 31.65 6.28271 29.6625 6.28271 28.1437V13.05C6.28271 10.95 7.78771 8.62495 9.62521 7.8937L19.1977 4.04995C20.1952 3.6562 21.8052 3.6562 22.8027 4.04995L32.3752 7.8937C34.2127 8.62495 35.7177 10.95 35.7177 13.05Z" fill="#0052CA"/>
<path d="M32.9348 23.1375C34.0898 22.2375 35.7173 23.1188 35.7173 24.6563V28.1813C35.7173 29.7 34.7898 31.6688 33.6523 32.5875L24.0798 40.2563C23.2398 40.9125 22.1198 41.25 20.9998 41.25C19.8798 41.25 18.7598 40.9125 17.9198 40.2375L16.4673 39.075C15.5223 38.325 15.5223 36.8063 16.4848 36.0563L32.9348 23.1375Z" fill="#0052CA"/>
</svg>
